#!OML:ASF H:\MichaelJackson\Top Level 1\Subject 1\Session 1\male.ASF
:FULLY-SPECIFIED
:DEGREES
1751
root -8.20725 16.3131 34.355 -355.11 -17.6211 1.99847
lowerback -4.16876 -2.96935 -1.28321
upperback -2.13625 -3.92336 -5.0367
thorax -0.136323 -1.99967 -4.62833
lowerneck -5.53877 -4.48301 -1.53817
upperneck 5.2085 -6.3104 6.29219
head 2.93357 -2.97136 2.04404
rclavicle 7.55382e-015 2.70347e-014
rhumerus -212.8 132.146 -216.391
rradius 115.664
rwrist -27.1239
rhand 45.2659 -15.0451
rfingers 7.12502
rthumb 66.589 -19.3325
lclavicle 7.55382e-015 2.70347e-014
lhumerus -52.9325 -31.8276 107.376
lradius 56.1366
lwrist 17.357
lhand 35.5286 32.8035
lfingers 7.12502
lthumb 58.5967 47.9772
rfemur -23.186 -5.85933 -5.37326
rtibia 37.0056
rfoot -2.74217 -0.735692
rtoes -45.6021
lfemur -3.22062 -9.01708 -0.457169
ltibia 19.3802
lfoot -20.381 -27.3346
ltoes 9.50124
1752
root -8.25622 16.2572 34.3449 -355.068 -18.1855 1.97971
lowerback -4.21739 -2.93848 -1.05386
upperback -2.16699 -3.89177 -5.0987
thorax -0.15861 -1.98782 -4.82292
lowerneck -5.56457 -4.24846 -1.19474
upperneck 4.78555 -5.99155 6.19318
head 2.76238 -2.81683 1.96503
rclavicle 7.37988e-014 1.74931e-014
rhumerus -207.839 133.681 -208.948
rradius 111.812
rwrist -28.0877
rhand 48.6832 -16.7497
rfingers 7.12502
rthumb 69.067 -15.2493
lclavicle 7.37988e-014 1.74931e-014
lhumerus -53.1288 -32.0589 107.486
lradius 55.6522
lwrist 16.6439
lhand 36.3231 31.6298
lfingers 7.12502
lthumb 59.2837 46.1407
rfemur -23.4005 -6.47636 -5.0013
rtibia 37.2042
rfoot -4.69769 -1.36795
rtoes -45.3472
lfemur -2.84015 -8.86507 -0.381531
ltibia 19.3493
lfoot -21.7007 -26.2952
ltoes 7.97711
1753
root -8.30081 16.2025 34.3312 -355.083 -18.8724 2.02976
lowerback -4.19259 -2.86272 -0.916295
upperback -2.1784 -3.79886 -5.15785
thorax -0.190391 -1.94414 -4.9573
lowerneck -5.58392 -4.01652 -0.871631
upperneck 4.31684 -5.67255 6.09397
head 2.57828 -2.66427 1.88946
rclavicle 3.10601e-014 4.77083e-014
rhumerus -203.323 135.862 -202.354
rradius 107.165
rwrist -28.6592
rhand 50.0802 -18.3031
rfingers 7.12502
rthumb 70.004 -14.0253
lclavicle 3.10601e-014 4.77083e-014
lhumerus -53.2538 -32.1659 107.531
lradius 55.2684
lwrist 16.3277
lhand 36.8474 30.717
lfingers 7.12502
lthumb 59.7345 44.773
rfemur -23.7182 -6.97712 -4.65516
rtibia 37.4579
rfoot -6.46736 -2.08313
rtoes -44.9838
lfemur -2.35288 -8.98603 -0.503735
ltibia 19.3346
lfoot -23.2597 -24.4598
ltoes 5.4576
1754
root -8.3418 16.1496 34.3141 -355.149 -19.6443 2.14027
lowerback -4.10152 -2.75596 -0.881498
upperback -2.17512 -3.66244 -5.20537
thorax -0.232409 -1.8773 -5.01702
lowerneck -5.57357 -3.7876 -0.586525
upperneck 3.80528 -5.35352 6.00949
head 2.37936 -2.51393 1.82566
rclavicle 3.08116e-015 9.54166e-015
rhumerus -199.326 138.648 -196.727
rradius 101.729
rwrist -28.8178
rhand 48.9349 -19.3391
rfingers 7.12502
rthumb 69.2394 -17.3575
lclavicle 3.08116e-015 9.54166e-015
lhumerus -53.3337 -32.1702 107.548
lradius 55.0249
lwrist 16.4859
lhand 37.0444 30.2263
lfingers 7.12502
lthumb 59.9032 44.1077
rfemur -24.0793 -7.2837 -4.36167
rtibia 37.7274
rfoot -8.05254 -2.90396
rtoes -44.5892
lfemur -1.77503 -9.41171 -0.794873
ltibia 19.31
lfoot -24.831 -21.9589
ltoes 2.29899
1755
root -8.38029 16.099 34.2938 -355.255 -20.446 2.31007
lowerback -3.96159 -2.64051 -0.968633
upperback -2.1676 -3.51173 -5.23492
thorax -0.28716 -1.80178 -4.98643
lowerneck -5.52476 -3.56233 -0.336437
upperneck 3.2748 -5.03637 5.9361
head 2.17178 -2.36641 1.7717
rclavicle -9.48451e-014 4.29375e-014
rhumerus -195.815 141.978 -192.091
rradius 95.5511
rwrist -28.5916
rhand 44.8083 -19.6392
rfingers 7.12502
rthumb 66.2404 -24.6055
lclavicle -9.48451e-014 4.29375e-014
lhumerus -53.4068 -32.0928 107.575
lradius 54.9515
lwrist 17.1188
lhand 36.9031 30.2327
lfingers 7.12502
lthumb 59.7822 44.2397
rfemur -24.4456 -7.35354 -4.15752
rtibia 37.9927
rfoot -9.44323 -3.82644
rtoes -44.1987
lfemur -1.15685 -10.0727 -1.21759
ltibia 19.2656
lfoot -26.2293 -19.0474
ltoes -1.14343
1756
root -8.41705 16.0515 34.2709 -355.378 -21.2278 2.52599
lowerback -3.79706 -2.53194 -1.17002
upperback -2.16357 -3.36781 -5.2428
thorax -0.352115 -1.72819 -4.86794
lowerneck -5.4395 -3.34429 -0.117081
upperneck 2.75104 -4.7272 5.87017
head 1.96418 -2.22405 1.72518
rclavicle -9.54166e-015 1.27222e-014
rhumerus -192.712 145.818 -188.409
rradius 88.7502
rwrist -28.0727
rhand 37.6744 -19.4539
rfingers 7.12502
rthumb 60.4409 -32.7628
lclavicle -9.54166e-015 1.27222e-014
lhumerus -53.5042 -31.9837 107.657
lradius 55.0437
lwrist 18.1603
lhand 36.4069 30.7077
lfingers 7.12502
lthumb 59.3559 45.1469
rfemur -24.8104 -7.20179 -4.05637
rtibia 38.2543
rfoot -10.6259 -4.76843
rtoes -43.8523
lfemur -0.554166 -10.8464 -1.71564
ltibia 19.2048
lfoot -27.3443 -16.0392
ltoes -4.46134
1757
root -8.4523 16.0078 34.2464 -355.492 -21.9436 2.76509
lowerback -3.63519 -2.44735 -1.45613
upperback -2.16911 -3.25426 -5.22507
thorax -0.422399 -1.66859 -4.67623
lowerneck -5.31065 -3.13558 0.0666833
upperneck 2.24368 -4.42897 5.8188
head 1.75869 -2.08798 1.68912
rclavicle 3.68497e-014 4.45278e-014
rhumerus -189.852 150.183 -185.608
rradius 81.4307
rwrist -27.4132
rhand 28.0404 -19.1915
rfingers 7.12502
rthumb 51.9368 -39.3346
lclavicle 3.68497e-014 4.45278e-014
lhumerus -53.6376 -31.8766 107.815
lradius 55.2724
lwrist 19.4705
lhand 35.61 31.5653
lfingers 7.12502
lthumb 58.6673 46.6724
rfemur -25.1904 -6.89463 -4.04856
rtibia 38.5352
rfoot -11.599 -5.62467
rtoes -43.5434
lfemur -0.0223349 -11.5967 -2.22029
ltibia 19.1371
lfoot -28.1615 -13.2288
ltoes -7.38126
1758
root -8.48592 15.9685 34.2208 -355.566 -22.5493 2.99618
lowerback -3.49944 -2.39806 -1.7811
upperback -2.18962 -3.187 -5.17697
thorax -0.493951 -1.63131 -4.43371
lowerneck -5.14965 -2.94202 0.209586
upperneck 1.76946 -4.14972 5.77655
head 1.5626 -1.96162 1.66215
rclavicle 3.68746e-014 -7.95139e-015
rhumerus -187.126 155.145 -183.601
rradius 73.7613
rwrist -26.6103
rhand 17.1306 -18.9363
rfingers 7.12502
rthumb 41.8533 -43.5753
lclavicle 3.68746e-014 -7.95139e-015
lhumerus -53.8058 -31.8033 108.059
lradius 55.5819
lwrist 20.8518
lhand 34.598 32.6383
lfingers 7.12502
lthumb 57.7865 48.5498
rfemur -25.6121 -6.53634 -4.09893
rtibia 38.8644
rfoot -12.3801 -6.30009
rtoes -43.3098
lfemur 0.376455 -12.2075 -2.65152
ltibia 19.0778
lfoot -28.7303 -10.8546
ltoes -9.76775
1759
root -8.51758 15.9339 34.1952 -355.58 -23.032 3.17847
lowerback -3.39693 -2.38066 -2.07971
upperback -2.22161 -3.16242 -5.09378
thorax -0.561546 -1.61506 -4.17245
lowerneck -4.98566 -2.77231 0.312211
upperneck 1.34556 -3.90175 5.72019
head 1.38571 -1.85043 1.63601
rclavicle 3.37188e-014 -4.77083e-015
rhumerus -184.434 160.843 -182.316
rradius 65.955
rwrist -25.5637
rhand 7.19602 -18.5111
rfingers 7.12502
rthumb 32.4623 -45.6232
lclavicle 3.37188e-014 -4.77083e-015
lhumerus -53.9862 -31.7958 108.389
lradius 55.8947
lwrist 22.0899
lhand 33.4917 33.726
lfingers 7.12502
lthumb 56.8157 50.4645
rfemur -26.0906 -6.22244 -4.15092
rtibia 39.2619
rfoot -12.9988 -6.72997
rtoes -43.1347
lfemur 0.622649 -12.6213 -2.94305
ltibia 19.0437
lfoot -29.1272 -9.0388
ltoes -11.5883
1760
root -8.54677 15.9047 34.1701 -355.528 -23.3727 3.28261
lowerback -3.32088 -2.39106 -2.29173
upperback -2.25905 -3.17611 -4.97577
thorax -0.624903 -1.61829 -3.92612
lowerneck -4.84765 -2.63372 0.370554
upperneck 0.978348 -3.69521 5.6308
head 1.23439 -1.75888 1.60496
rclavicle 3.04886e-014 1.59028e-015
rhumerus -181.746 167.463 -181.708
rradius 58.3064
rwrist -24.0466
rhand -1.22112 -18.5209
rfingers 7.12502
rthumb 24.4203 -46.9846
lclavicle 3.04886e-014 1.59028e-015
lhumerus -54.1519 -31.8664 108.783
lradius 56.139
lwrist 22.9793
lhand 32.4771 34.645
lfingers 7.12502
lthumb 55.9191 52.0973
rfemur -26.6138 -6.03532 -4.1542
rtibia 39.7266
rfoot -13.4871 -6.89262
rtoes -42.9853
lfemur 0.707496 -12.8262 -3.05174
ltibia 19.0452
lfoot -29.4151 -7.82708
ltoes -12.8821
1761
root -8.57348 15.8806 34.146 -355.412 -23.5737 3.28674
lowerback -3.25626 -2.41147 -2.36686
upperback -2.2972 -3.20563 -4.82645
thorax -0.688714 -1.63044 -3.72523
lowerneck -4.74132 -2.53851 0.380595
upperneck 0.651073 -3.54555 5.49086
head 1.1038 -1.69493 1.56396
rclavicle 6.95746e-015 2.22639e-014
rhumerus -179.025 175.234 -181.764
rradius 51.034
rwrist -21.6733
rhand -8.19431 -19.5511
rfingers 7.12502
rthumb 17.7219 -48.7635
lclavicle 6.95746e-015 2.22639e-014
lhumerus -54.2813 -32.0192 109.214
lradius 56.2562
lwrist 23.3507
lhand 31.7509 35.239
lfingers 7.12502
lthumb 55.2738 53.1777
rfemur -27.1499 -6.01008 -4.06624
rtibia 40.2329
rfoot -13.8752 -6.81965
rtoes -42.8396
lfemur 0.649122 -12.831 -2.95843
ltibia 19.0822
lfoot -29.6363 -7.21038
ltoes -13.6812
1762
root -8.59787 15.8618 34.1236 -355.253 -23.6399 3.19076
lowerback -3.17925 -2.42319 -2.27733
upperback -2.33091 -3.22735 -4.65792
thorax -0.762054 -1.64031 -3.5961
lowerneck -4.66262 -2.49482 0.346478
upperneck 0.339191 -3.46305 5.29358
head 0.985076 -1.66411 1.51032
rclavicle -4.67392e-014 -1.90833e-014
rhumerus -176.229 184.255 -182.493
rradius 44.4448
rwrist -18.2246
rhand -14.7966 -23.0258
rfingers 7.12502
rthumb 11.3609 -52.698
lclavicle -4.67392e-014 -1.90833e-014
lhumerus -54.3724 -32.2491 109.661
lradius 56.2215
lwrist 23.1293
lhand 31.4431 35.4035
lfingers 7.12502
lthumb 54.9994 53.5426
rfemur -27.6431 -6.14046 -3.87451
rtibia 40.7338
rfoot -14.1924 -6.57937
rtoes -42.6662
lfemur 0.48611 -12.6684 -2.67968
ltibia 19.1424
lfoot -29.8097 -7.1346
ltoes -14.0387
1763
root -8.62072 15.848 34.1029 -355.073 -23.5815 3.01239
lowerback -3.07548 -2.41391 -2.02846
upperback -2.35691 -3.22493 -4.48795
thorax -0.84983 -1.6401 -3.55321
lowerneck -4.59784 -2.50258 0.29039
upperneck 0.013045 -3.44806 5.04599
head 0.865956 -1.66706 1.44303
rclavicle -4.23163e-014 1.27222e-014
rhumerus -173.248 194.339 -183.914
rradius 38.8068
rwrist -13.7903
rhand -21.4855 -29.5118
rfingers 7.12502
rthumb 4.90561 -59.435
lclavicle -4.23163e-014 1.27222e-014
lhumerus -54.4243 -32.5193 110.076
lradius 56.0476
lwrist 22.3114
lhand 31.6348 35.0941
lfingers 7.12502
lthumb 55.1704 53.1088
rfemur -28.0413 -6.39327 -3.58757
rtibia 41.1774
rfoot -14.4628 -6.28158
rtoes -42.4557
lfemur 0.258112 -12.3864 -2.2543
ltibia 19.2039
lfoot -29.9348 -7.4978
ltoes -14.0374
